<svg xmlns="http://www.w3.org/2000/svg" width="130" height="126" viewBox="0 0 130 126" data-anchor="65,92" data-footprint="2x2">
<ellipse cx="65" cy="105" rx="33" ry="8" fill="#00000022"/>
<polygon points="35,72 65,87 65,107 35,92" fill="#E2CFA4"/>
<polygon points="65,87 95,72 95,92 65,107" fill="#CDB888"/>
<polygon points="35,72 65,87 65,49" fill="#C0473A"/><polygon points="65,87 95,72 65,49" fill="#9E3327"/>
<path d="M38 104 Q36 90 47 89 Q58 90 56 104 Z" fill="#A0533A"/><path d="M40 104 Q39 95 47 94 Q55 95 54 104 Z" fill="#2E1A14"/><ellipse cx="47" cy="99" rx="5" ry="3" fill="#E8651C" opacity="0.7"/>
<rect x="74" y="52" width="8" height="16" fill="#A0533A"/><rect x="74" y="52" width="8" height="3" fill="#B86A4E"/><line x1="74" y1="59" x2="82" y2="59" stroke="#7A3E2A" stroke-width="0.6"/>
</svg>
