<svg xmlns="http://www.w3.org/2000/svg" width="130" height="126" viewBox="0 0 130 126" data-anchor="65,92" data-footprint="2x2">
<defs><radialGradient id="forge" cx="50%" cy="60%" r="60%"><stop offset="0%" stop-color="#FFE38A"/><stop offset="55%" stop-color="#F6A12B"/><stop offset="100%" stop-color="#C0392B"/></radialGradient></defs>
<ellipse cx="65" cy="105" rx="33" ry="8" fill="#00000022"/>
<polygon points="35,68 65,83 65,107 35,92" fill="#B5AC9B"/><polygon points="65,83 95,68 95,92 65,107" fill="#958D7C"/>
<line x1="35" y1="76" x2="65" y2="91" stroke="#A39A88" stroke-width="0.6"/><line x1="95" y1="76" x2="65" y2="91" stroke="#857D6E" stroke-width="0.6"/>
<polygon points="35,68 65,83 65,45" fill="#6E5430"/><polygon points="65,83 95,68 65,45" fill="#5A4228"/>
<line x1="44" y1="60" x2="65" y2="71" stroke="#5A4228" stroke-width="0.6"/><line x1="86" y1="60" x2="65" y2="71" stroke="#4A3622" stroke-width="0.6"/>
<polygon points="65,45 67,49 63,49" fill="#C0392B"/>
<rect x="74" y="48" width="7" height="17" fill="#958D7C"/><rect x="74" y="48" width="7" height="3" fill="#B5AC9B"/>
<ellipse cx="78" cy="93" rx="10" ry="8" fill="#F6A12B" opacity="0.25"/>
<path d="M72 100 L72 88 Q78 83 84 88 L84 99 Z" fill="url(#forge)"/><path d="M72 88 Q78 84 84 88" fill="none" stroke="#7A2A18" stroke-width="1"/>
<rect x="41" y="99" width="9" height="6" rx="1" fill="#6B4F30"/>
<path d="M38 98 L52 98 L50 95 L55 94 L55 92 L44 92 L44 95 L40 95 Z" fill="#4A4A4A"/><path d="M38 98 L52 98 L50 95 L44 95 Z" fill="#5E5E5E"/>
<line x1="47" y1="92" x2="54" y2="85" stroke="#3A2A19" stroke-width="1.6" stroke-linecap="round"/><rect x="53" y="83" width="5" height="3.5" rx="1" fill="#6E747A"/>
</svg>
