<svg xmlns="http://www.w3.org/2000/svg" width="130" height="126" viewBox="0 0 130 126" data-anchor="65,92" data-footprint="2x2">
<ellipse cx="65" cy="105" rx="33" ry="8" fill="#00000022"/>
<polygon points="35,62 65,77 65,107 35,92" fill="#B5AC9B"/>
<polygon points="65,77 95,62 95,92 65,107" fill="#958D7C"/>
<polygon points="35,62 65,77 65,42" fill="#6E5430"/><polygon points="65,77 95,62 65,42" fill="#5A4228"/>
<path d="M38 80 L38 62 L52 69 L52 88 Z" fill="#2E2620"/><path d="M40 78 L40 65 L50 70 L50 84 Z" fill="#C0392B"/><ellipse cx="45" cy="75" rx="3.6" ry="4.6" fill="#E8C45A"/><ellipse cx="45" cy="74" rx="2" ry="2.6" fill="#F4E08A"/>
<rect x="76" y="32" width="9" height="22" fill="#5A4632"/><rect x="76" y="32" width="9" height="4" fill="#6E5430"/><rect x="74" y="28" width="13" height="5" fill="#3A2E22"/>
<polygon points="49,100 61,100 61,103 49,103" fill="#6E5430"/>
<polygon points="48,94 62,94 65,99 45,99" fill="#7E7A72"/><polygon points="48,94 65,99 65,101 48,96" fill="#5A554E"/><polygon points="53,94 57,94 58,91 52,91" fill="#928D80"/><rect x="54" y="98" width="3" height="5" fill="#5A4632"/>
</svg>
