<svg xmlns="http://www.w3.org/2000/svg" width="130" height="126" viewBox="0 0 130 126" data-anchor="65,92" data-footprint="2x2">
<ellipse cx="65" cy="105" rx="33" ry="8" fill="#00000022"/>
<polygon points="38,72 64,85 64,106 38,93" fill="#8A6A3E"/>
<polygon points="64,85 90,72 90,93 64,106" fill="#6E5430"/>
<polygon points="38,72 64,85 64,50" fill="#7A5C38"/><polygon points="64,85 90,72 64,50" fill="#5A4228"/>
<path d="M54 104 L54 90 Q59 86 64 90 L64 101 Z" fill="#2E2018"/>
<path d="M56 88 Q53 82 50 84 M56 88 Q53 84 55 80 M62 88 Q65 82 68 84 M62 88 Q65 84 63 80" stroke="#E2D6B8" stroke-width="1.4" fill="none" stroke-linecap="round"/>
<line x1="72" y1="86" x2="72" y2="102" stroke="#5A4228" stroke-width="1.6"/><line x1="92" y1="78" x2="92" y2="94" stroke="#5A4228" stroke-width="1.6"/><line x1="72" y1="88" x2="92" y2="80" stroke="#6E5430" stroke-width="1.4"/>
<rect x="76" y="83" width="3" height="6" fill="#9E5A3E"/><rect x="83" y="80" width="3" height="6" fill="#B56E4E"/>
</svg>
