<svg xmlns="http://www.w3.org/2000/svg" width="130" height="126" viewBox="0 0 130 126" data-anchor="65,92" data-footprint="3x3">
<ellipse cx="65" cy="104" rx="34" ry="8" fill="#00000022"/>
<polygon points="35,50 65,65 65,107 35,92" fill="#B5AC9B"/>
<polygon points="65,65 95,50 95,92 65,107" fill="#958D7C"/>
<polygon points="65,35 95,50 65,65 35,50" fill="#CFC8BA"/>
<polygon points="35,50 35,44 41,47 41,53" fill="#CFC8BA"/><polygon points="50,42 50,36 56,39 56,45" fill="#CFC8BA"/><polygon points="65,35 65,29 71,32 71,38" fill="#D8D1C4"/><polygon points="80,42 80,36 86,39 86,45" fill="#C4BDB0"/><polygon points="95,50 95,44 89,47 89,53" fill="#C4BDB0"/>
<path d="M70 105 L70 88 Q77 82 84 88 L84 102 Z" fill="#2E2620"/><path d="M70 88 Q77 83 84 88" fill="none" stroke="#5A4632" stroke-width="1"/>
<rect x="44" y="68" width="4" height="9" rx="1" fill="#3A332A"/><rect x="76" y="62" width="4" height="9" rx="1" fill="#2E2820"/>
</svg>
