<svg xmlns="http://www.w3.org/2000/svg" width="130" height="126" viewBox="0 0 130 126" data-anchor="65,92" data-footprint="3x2">
<ellipse cx="65" cy="105" rx="38" ry="9" fill="#00000022"/>
<polygon points="35,58 65,73 65,107 35,92" fill="#5A4632"/>
<polygon points="65,73 95,58 95,92 65,107" fill="#4A3826"/>
<rect x="37" y="58" width="4" height="34" fill="#6E5430"/><rect x="89" y="58" width="4" height="34" fill="#5A4228"/><rect x="61" y="73" width="4" height="34" fill="#6E5430"/>
<polygon points="35,58 65,73 65,53 35,38" fill="#6E5430"/><polygon points="65,73 95,58 95,38 65,53" fill="#5A4228"/>
<polygon points="32,40 65,53 65,44 32,31" fill="#7E5E36"/><polygon points="65,53 98,40 98,31 65,44" fill="#6E5430"/>
<polygon points="32,40 65,28 65,44 32,40" fill="#9A7A4A"/><polygon points="65,28 98,40 65,44" fill="#7E5E36"/>
<line x1="65" y1="28" x2="65" y2="44" stroke="#5A4228" stroke-width="1"/>
<rect x="44" y="80" width="14" height="9" rx="2" fill="#E8C45A"/><rect x="44" y="80" width="14" height="9" rx="2" fill="none" stroke="#C9A23A" stroke-width="1"/><line x1="44" y1="84.5" x2="58" y2="84.5" stroke="#C9A23A" stroke-width="1"/>
<rect x="46" y="74" width="11" height="7" rx="2" fill="#F0D070"/><line x1="46" y1="77.5" x2="57" y2="77.5" stroke="#C9A23A" stroke-width="1"/>
<line x1="68" y1="86" x2="88" y2="78" stroke="#6E5430" stroke-width="2.4"/>
<path d="M72 92 L72 82 L76 78 L82 79 L84 75 L85 79 L83 83 L84 92 L81 92 L80 86 L77 86 L77 92 Z" fill="#3A2A1C"/>
</svg>
