<svg xmlns="http://www.w3.org/2000/svg" width="130" height="126" viewBox="0 0 130 126" data-anchor="65,98" data-footprint="1x1">
<ellipse cx="65" cy="105" rx="32" ry="7" fill="#00000022"/>
<polygon points="33,80 65,92 65,110 33,98" fill="#B5AC9B"/>
<polygon points="65,92 97,80 97,98 65,110" fill="#958D7C"/>
<polygon points="65,68 97,80 65,92 33,80" fill="#CFC8BA"/>
<polygon points="33,80 33,74 41,78 41,84" fill="#C4BDB0"/><polygon points="49,76 49,70 57,74 57,80" fill="#CFC8BA"/><polygon points="65,68 73,72 73,78 65,74" fill="#B8B1A4"/><polygon points="81,76 81,70 89,74 89,80" fill="#B8B1A4"/>
</svg>
