<svg xmlns="http://www.w3.org/2000/svg" width="130" height="126" viewBox="0 0 130 126" data-anchor="65,96" data-pivot="65,104">
<g id="stalks">
<g transform="translate(44,90)"><line x1="0" y1="0" x2="0" y2="-13" stroke="#A87E22" stroke-width="1.4"/><ellipse cx="0" cy="-15" rx="2.4" ry="4" fill="#E8C45A"/></g>
<g transform="translate(58,97)"><line x1="0" y1="0" x2="0" y2="-13" stroke="#A87E22" stroke-width="1.4"/><ellipse cx="0" cy="-15" rx="2.4" ry="4" fill="#F0CE66"/></g>
<g transform="translate(72,90)"><line x1="0" y1="0" x2="0" y2="-13" stroke="#A87E22" stroke-width="1.4"/><ellipse cx="0" cy="-15" rx="2.4" ry="4" fill="#E8C45A"/></g>
<g transform="translate(64,104)"><line x1="0" y1="0" x2="0" y2="-13" stroke="#A87E22" stroke-width="1.4"/><ellipse cx="0" cy="-15" rx="2.4" ry="4" fill="#F0CE66"/></g>
<g transform="translate(82,99)"><line x1="0" y1="0" x2="0" y2="-13" stroke="#A87E22" stroke-width="1.4"/><ellipse cx="0" cy="-15" rx="2.4" ry="4" fill="#E8C45A"/></g>
<g transform="translate(50,104)"><line x1="0" y1="0" x2="0" y2="-13" stroke="#A87E22" stroke-width="1.4"/><ellipse cx="0" cy="-15" rx="2.4" ry="4" fill="#E8C45A"/></g>
</g>
</svg>
