<svg xmlns="http://www.w3.org/2000/svg" width="110" height="100" viewBox="0 0 110 100" data-anchor="55,94" data-footprint="1x1">
<ellipse cx="55" cy="94" rx="30" ry="6" fill="#00000022"/>
<g id="legBL" data-pivot="44,72"><rect x="42" y="72" width="4" height="20" rx="2" fill="#A07A48"/></g>
<g id="legBR" data-pivot="70,72"><rect x="68" y="72" width="4" height="20" rx="2" fill="#A07A48"/></g>
<g id="legFL" data-pivot="48,72"><rect x="46" y="72" width="4" height="20" rx="2" fill="#B68A56"/></g>
<g id="legFR" data-pivot="66,72"><rect x="64" y="72" width="4" height="20" rx="2" fill="#B68A56"/></g>
<g id="body"><path d="M36 74 Q34 56 50 54 Q54 42 62 50 Q66 42 74 50 Q86 54 80 74 Q74 64 64 64 Q54 64 36 74 Z" fill="#C49A5C"/>
<path d="M76 50 Q82 38 80 32 Q76 36 74 46 Z" fill="#C49A5C"/>
<circle cx="78" cy="34" r="4.5" fill="#C49A5C"/><circle cx="80" cy="33" r="1" fill="#2A1E12"/><path d="M82 32 L87 31" stroke="#A07A48" stroke-width="1.4" stroke-linecap="round"/></g>
</svg>
