<svg xmlns="http://www.w3.org/2000/svg" width="32" height="32" viewBox="0 0 32 32" data-anchor="16,16" data-note="weapon clash spark; one-shot scale+fade ~0.18s">
<g id="clash" fill="#FFE38A"><path d="M16 0 L18 13 L16 16 L14 13 Z"/><path d="M16 32 L14 19 L16 16 L18 19 Z"/><path d="M0 16 L13 14 L16 16 L13 18 Z"/><path d="M32 16 L19 18 L16 16 L19 14 Z"/><path d="M5 5 L14 12 L13 14 Z"/><path d="M27 27 L18 20 L19 18 Z"/><path d="M27 5 L18 12 L19 14 Z"/><path d="M5 27 L14 20 L13 18 Z"/><circle cx="16" cy="16" r="3" fill="#FFFFFF"/></g>
</svg>
