<svg xmlns="http://www.w3.org/2000/svg" width="110" height="100" viewBox="0 0 110 100" data-anchor="55,94" data-team-fill="#3A5FB5" data-unit="camel_lancer">
<ellipse cx="55" cy="94" rx="30" ry="6" fill="#00000022"/>
<rect x="42" y="72" width="4" height="20" rx="2" fill="#A07A48"/><rect x="68" y="72" width="4" height="20" rx="2" fill="#A07A48"/>
<rect x="46" y="72" width="4" height="20" rx="2" fill="#B68A56"/><rect x="64" y="72" width="4" height="20" rx="2" fill="#B68A56"/>
<path d="M36 74 Q34 56 50 54 Q54 42 62 50 Q66 42 74 50 Q86 54 80 74 Q74 64 64 64 Q54 64 36 74 Z" fill="#C49A5C"/>
<path d="M76 50 Q82 38 80 32 Q76 36 74 46 Z" fill="#C49A5C"/><circle cx="78" cy="34" r="4.5" fill="#C49A5C"/><circle cx="80" cy="33" r="1" fill="#2A1E12"/><path d="M82 32 L87 31" stroke="#A07A48" stroke-width="1.4" stroke-linecap="round"/>
<rect x="48" y="50" width="16" height="6" rx="2" fill="#7A4E2E"/>
<path d="M50 50 Q50 44 56 44 Q62 44 62 50 L64 60 L48 60 Z" fill="#3A5FB5"/><path d="M56 44 Q62 44 62 50 L64 60 L56 60 Z" fill="#2E4C94"/>
<path d="M61 50 L16 42" stroke="#7A5C38" stroke-width="2.2" stroke-linecap="round"/><polygon points="16,42 22,40 21,45" fill="#AEB4BA"/><path d="M24 41 L31 39 L29 45 L24 44 Z" fill="#C0392B"/>
<path d="M60 50 L62 47" stroke="#E0A87E" stroke-width="3" stroke-linecap="round"/>
<circle cx="56" cy="36" r="5.5" fill="#E8B58C"/>
<path d="M50 36 Q50 28 56 28 Q62 28 62 36 Z" fill="#AEB4BA"/><rect x="55" y="32" width="2" height="6" fill="#8B9197"/>
<circle cx="54" cy="36.5" r="0.8" fill="#3A2A19"/><circle cx="58.5" cy="36.5" r="0.8" fill="#3A2A19"/>
</svg>
