<svg xmlns="http://www.w3.org/2000/svg" width="34" height="46" viewBox="0 0 34 46" data-anchor="17,46" data-team-fill="#3A5FB5" data-unit="crossbowman">
<ellipse cx="17" cy="44" rx="11" ry="3.5" fill="#00000022"/>
<rect x="12" y="34" width="4.5" height="10" rx="2" fill="#6B4F30"/><rect x="18" y="34" width="4.5" height="10" rx="2" fill="#5A4228"/>
<path d="M10 16 Q10 10 17 10 Q24 10 24 16 L26 35 L8 35 Z" fill="#3A5FB5"/><path d="M17 10 Q24 10 24 16 L26 35 L17 35 Z" fill="#2E4C94"/>
<line x1="11" y1="13" x2="11" y2="34" stroke="#2E4C94" stroke-width="0.8"/><line x1="17" y1="11" x2="17" y2="35" stroke="#2E4C94" stroke-width="0.8"/><line x1="23" y1="13" x2="23" y2="34" stroke="#2E4C94" stroke-width="0.8"/>
<rect x="2" y="19" width="22" height="2.4" rx="1" fill="#6B4F30"/>
<path d="M3 15 Q-1 20 3 25" stroke="#5A4228" stroke-width="2" fill="none"/><line x1="3" y1="15" x2="3" y2="25" stroke="#3A2A19" stroke-width="1.4"/>
<path d="M9 17 L5 20" stroke="#E8B58C" stroke-width="3.5" stroke-linecap="round"/><path d="M24 17 L21 20" stroke="#E0A87E" stroke-width="3.5" stroke-linecap="round"/>
<circle cx="17" cy="6" r="6.5" fill="#E8B58C"/>
<path d="M11 3 Q12 -2 17 -2 Q22 -2 23 3 Q17 0 11 3 Z" fill="#6B4F30"/>
<circle cx="14.5" cy="6.5" r="0.9" fill="#3A2A19"/><circle cx="19.5" cy="6.5" r="0.9" fill="#3A2A19"/>
</svg>
