<svg xmlns="http://www.w3.org/2000/svg" width="34" height="46" viewBox="0 0 34 46" data-anchor="17,46" data-team-fill="#3A5FB5" data-unit="crossbowman" data-pose="attack">
<ellipse cx="17" cy="44" rx="11" ry="3.5" fill="#00000022"/>
<rect x="13" y="34" width="4.5" height="10" rx="2" fill="#6B4F30"/><rect x="19" y="34" width="4.5" height="10" rx="2" fill="#5A4228"/>
<path d="M12 16 Q12 10 19 10 Q26 10 26 16 L28 35 L10 35 Z" fill="#3A5FB5"/><path d="M19 10 Q26 10 26 16 L28 35 L19 35 Z" fill="#2E4C94"/>
<rect x="2" y="19" width="22" height="2.4" rx="1" fill="#6B4F30"/>
<path d="M3 15 Q-1 20 3 25" stroke="#5A4228" stroke-width="2" fill="none"/><line x1="3" y1="20" x2="11" y2="20" stroke="#3A2A19" stroke-width="0.8"/>
<line x1="2" y1="20" x2="-8" y2="20" stroke="#7A5C38" stroke-width="1.6"/><polygon points="-8,20 -4,18.5 -4,21.5" fill="#AEB4BA"/>
<path d="M11 17 L5 20" stroke="#E8B58C" stroke-width="3.5" stroke-linecap="round"/><path d="M25 17 L20 20" stroke="#E0A87E" stroke-width="3.5" stroke-linecap="round"/>
<circle cx="19" cy="6" r="6.5" fill="#E8B58C"/><path d="M13 3 Q14 -2 19 -2 Q24 -2 25 3 Q19 0 13 3 Z" fill="#6B4F30"/>
<circle cx="16.5" cy="6.5" r="0.9" fill="#3A2A19"/><circle cx="21.5" cy="6.5" r="0.9" fill="#3A2A19"/>
</svg>
