<svg xmlns="http://www.w3.org/2000/svg" width="34" height="46" viewBox="0 0 34 46" data-anchor="17,46" data-team-fill="#3A5FB5" data-unit="manatarms" data-pose="attack">
<ellipse cx="17" cy="44" rx="12" ry="3.5" fill="#00000022"/>
<rect x="10" y="34" width="4.5" height="10" rx="2" fill="#8B9197" transform="rotate(-12 12 34)"/><rect x="19" y="34" width="4.5" height="10" rx="2" fill="#6E747A" transform="rotate(10 21 34)"/>
<path d="M3 13 Q3 11 5 11 L11 11 Q13 11 13 13 L8 31 Z" fill="#3A5FB5"/><path d="M3 13 L13 27 M13 13 L6 27" stroke="#E8C45A" stroke-width="1.2"/>
<path d="M10 16 Q10 10 17 10 Q24 10 24 16 L26 35 L8 35 Z" fill="#8B9197"/><path d="M17 10 Q24 10 24 16 L26 35 L17 35 Z" fill="#6E747A"/>
<rect x="13" y="11" width="8" height="24" fill="#3A5FB5"/><polygon points="17,11 21,11 21,35 17,35" fill="#2E4C94"/>
<line x1="32" y1="1" x2="11" y2="20" stroke="#E2E7EB" stroke-width="3" stroke-linecap="round"/><line x1="29" y1="2" x2="33" y2="8" stroke="#C99A2E" stroke-width="2.2"/>
<path d="M9 16 L6 27" stroke="#8B9197" stroke-width="3.5" stroke-linecap="round"/><path d="M24 15 L29 5" stroke="#8B9197" stroke-width="3.5" stroke-linecap="round"/>
<circle cx="17" cy="6" r="6.5" fill="#E8B58C"/><path d="M10 5 Q10 -2 17 -2 Q24 -2 24 5 Z" fill="#AEB4BA"/><rect x="16" y="2" width="2" height="6" fill="#8B9197"/>
<circle cx="14.5" cy="6.5" r="0.9" fill="#3A2A19"/><circle cx="19.5" cy="6.5" r="0.9" fill="#3A2A19"/>
</svg>
