<svg xmlns="http://www.w3.org/2000/svg" width="110" height="100" viewBox="0 0 110 100" data-anchor="55,94" data-team-fill="#3A5FB5" data-unit="mangonel" data-pose="attack">
<ellipse cx="52" cy="92" rx="36" ry="7" fill="#00000022"/>
<polygon points="24,82 78,82 84,88 30,88" fill="#7A5C38"/><polygon points="24,82 30,88 30,92 24,86" fill="#5A4228"/>
<circle cx="36" cy="88" r="7" fill="#5A4228"/><circle cx="36" cy="88" r="3" fill="#8A6A3E"/><circle cx="70" cy="86" r="7" fill="#4A3622"/><circle cx="70" cy="86" r="3" fill="#7A5C38"/>
<line x1="40" y1="82" x2="58" y2="56" stroke="#6E5430" stroke-width="3.5" stroke-linecap="round"/><line x1="72" y1="80" x2="58" y2="56" stroke="#5A4228" stroke-width="3.5" stroke-linecap="round"/>
<line x1="58" y1="58" x2="60" y2="28" stroke="#6B4F30" stroke-width="3.5" stroke-linecap="round"/>
<path d="M56 28 Q56 22 62 24" stroke="#5A4228" stroke-width="1.4" fill="none"/>
<circle cx="40" cy="20" r="4.5" fill="#9A9284"/><circle cx="40" cy="20" r="4.5" fill="none" stroke="#7E7668" stroke-width="0.8"/>
<line x1="46" y1="22" x2="40" y2="20" stroke="#8A8274" stroke-width="0.8"/><line x1="50" y1="26" x2="45" y2="23" stroke="#8A8274" stroke-width="0.8"/>
<circle cx="58" cy="57" r="3" fill="#3A2A19"/>
<ellipse cx="94" cy="84" rx="9" ry="3" fill="#00000022"/>
<rect x="91" y="76" width="3.5" height="9" rx="1.5" fill="#6B4F30" transform="rotate(8 93 80)"/><rect x="95" y="76" width="3.5" height="9" rx="1.5" fill="#5A4228" transform="rotate(8 97 80)"/>
<path d="M88 62 Q88 57 94 57 Q100 57 100 62 L102 77 L86 77 Z" fill="#3A5FB5" transform="rotate(6 94 67)"/><path d="M94 57 Q100 57 100 62 L102 77 L94 77 Z" fill="#2E4C94" transform="rotate(6 94 67)"/>
<path d="M90 62 L98 56" stroke="#E8B58C" stroke-width="3" stroke-linecap="round"/>
<circle cx="96" cy="50" r="5.5" fill="#E8B58C"/><path d="M90 49 Q91 43 96 43 Q101 43 102 49 Q96 46 90 49 Z" fill="#6B4F30"/>
<circle cx="94" cy="50" r="0.8" fill="#3A2A19"/><circle cx="98" cy="50" r="0.8" fill="#3A2A19"/>
</svg>
