<svg xmlns="http://www.w3.org/2000/svg" width="34" height="46" viewBox="0 0 34 46" data-anchor="17,46" data-team-fill="#3A5FB5" data-unit="medic">
<ellipse cx="17" cy="44" rx="11" ry="3.5" fill="#00000022"/>
<path d="M10 13 Q10 8 17 8 Q24 8 24 13 L28 44 L6 44 Z" fill="#3A5FB5"/><path d="M17 8 Q24 8 24 13 L28 44 L17 44 Z" fill="#2E4C94"/>
<rect x="13" y="18" width="8" height="15" fill="#EDE6D4"/><rect x="16" y="20" width="2" height="9" fill="#C0392B"/><rect x="13.5" y="23" width="7" height="2" fill="#C0392B"/>
<path d="M9 14 L6 28" stroke="#E8B58C" stroke-width="3.5" stroke-linecap="round"/><path d="M25 14 L28 28" stroke="#E0A87E" stroke-width="3.5" stroke-linecap="round"/>
<path d="M7 18 L23 30" stroke="#5A4228" stroke-width="1.4"/><ellipse cx="25" cy="30" rx="4.5" ry="5.5" fill="#6B4F30"/><path d="M25 26 Q28 24 27 21 Q25 24 25 26" fill="#4E913F"/>
<circle cx="17" cy="6" r="6.5" fill="#E8B58C"/>
<path d="M10 6 Q10 -1 17 -1 Q24 -1 24 6 Q17 3 10 6 Z" fill="#EDE6D4"/>
<circle cx="14.5" cy="6.5" r="0.9" fill="#3A2A19"/><circle cx="19.5" cy="6.5" r="0.9" fill="#3A2A19"/>
</svg>
