<svg xmlns="http://www.w3.org/2000/svg" width="34" height="46" viewBox="0 0 34 46" data-anchor="17,46" data-team-fill="#3A5FB5" data-facing="SW">
<g transform="translate(34,0) scale(-1,1)">
<ellipse cx="17" cy="44" rx="11" ry="3.5" fill="#00000022"/>
<rect x="11" y="34" width="4.5" height="10" rx="2" fill="#7A5C38"/><rect x="18" y="34" width="4.5" height="10" rx="2" fill="#6B4F30"/>
<path d="M9 16 Q9 10 16 10 Q23 10 23 16 L25 35 L7 35 Z" fill="#3A5FB5"/><path d="M16 10 Q23 10 23 16 L25 35 L16 35 Z" fill="#2E4C94"/>
<path d="M9 17 L7 30" stroke="#E8B58C" stroke-width="3.5" stroke-linecap="round"/><path d="M23 17 L26 30" stroke="#E0A87E" stroke-width="3.5" stroke-linecap="round"/>
<circle cx="16.5" cy="6" r="6.5" fill="#E8B58C"/><path d="M10 5 Q11 -1 16.5 -1 Q22 -1 23 5 Q16.5 1.5 10 5 Z" fill="#6B4A2B"/>
<circle cx="15" cy="6.5" r="0.9" fill="#3A2A19"/><circle cx="19" cy="6.5" r="0.9" fill="#3A2A19"/>
</g>
</svg>
