<svg xmlns="http://www.w3.org/2000/svg" width="34" height="46" viewBox="0 0 34 46" data-anchor="17,46" data-team-fill="#3A5FB5" data-unit="pikeman" data-pose="attack">
<ellipse cx="17" cy="44" rx="12" ry="3.5" fill="#00000022"/>
<rect x="7" y="34" width="4.5" height="9" rx="2" fill="#6B4F30" transform="rotate(-26 9 34)"/><rect x="21" y="34" width="4.5" height="10" rx="2" fill="#5A4228" transform="rotate(24 23 34)"/>
<path d="M10 16 Q10 10 17 10 Q24 10 24 16 L26 35 L8 35 Z" fill="#3A5FB5"/><path d="M17 10 Q24 10 24 16 L26 35 L17 35 Z" fill="#2E4C94"/>
<line x1="28" y1="28" x2="-4" y2="12" stroke="#7A5C38" stroke-width="2" stroke-linecap="round"/><polygon points="-4,12 3,11 0,17" fill="#AEB4BA"/>
<path d="M10 18 L4 15" stroke="#E8B58C" stroke-width="3.5" stroke-linecap="round"/><path d="M23 19 L17 16" stroke="#E0A87E" stroke-width="3.5" stroke-linecap="round"/>
<circle cx="16" cy="6" r="6.5" fill="#E8B58C"/><ellipse cx="16" cy="2" rx="9" ry="2.6" fill="#9AA0A6"/><path d="M11 2 Q11 -3 16 -3 Q21 -3 21 2 Z" fill="#AEB4BA"/>
<circle cx="13" cy="6.5" r="0.9" fill="#3A2A19"/><circle cx="17.5" cy="6.5" r="0.9" fill="#3A2A19"/>
</svg>
