<svg xmlns="http://www.w3.org/2000/svg" width="34" height="46" viewBox="0 0 34 46" data-anchor="17,46" data-team-fill="#3A5FB5" data-unit="spearman">
<ellipse cx="17" cy="44" rx="11" ry="3.5" fill="#00000022"/>
<rect x="12" y="34" width="4.5" height="10" rx="2" fill="#7A5C38"/><rect x="18" y="34" width="4.5" height="10" rx="2" fill="#6B4F30"/>
<path d="M10 16 Q10 10 17 10 Q24 10 24 16 L26 35 L8 35 Z" fill="#3A5FB5"/><path d="M17 10 Q24 10 24 16 L26 35 L17 35 Z" fill="#2E4C94"/>
<path d="M11 17 L22 31 M22 17 L11 31" stroke="#6B4F30" stroke-width="1.6"/>
<path d="M9 16 L6 28" stroke="#E8B58C" stroke-width="3.5" stroke-linecap="round"/>
<path d="M25 16 L27 24" stroke="#E0A87E" stroke-width="3.5" stroke-linecap="round"/>
<line x1="28" y1="2" x2="27" y2="42" stroke="#7A5C38" stroke-width="2" stroke-linecap="round"/><polygon points="27.5,0 24,7 31,6" fill="#AEB4BA"/>
<circle cx="6" cy="23" r="6.5" fill="#8E6A3E"/><circle cx="6" cy="23" r="6.5" fill="none" stroke="#5A4228" stroke-width="1.4"/><circle cx="6" cy="23" r="2" fill="#C9A86A"/>
<circle cx="17" cy="6" r="6.5" fill="#E8B58C"/>
<path d="M11 4 Q12 -1 17 -1 Q22 -1 23 4 Q17 1 11 4 Z" fill="#6B4F30"/>
<circle cx="14.5" cy="6.5" r="0.9" fill="#3A2A19"/><circle cx="19.5" cy="6.5" r="0.9" fill="#3A2A19"/>
</svg>
