<svg xmlns="http://www.w3.org/2000/svg" width="70" height="100" viewBox="0 0 70 100" data-anchor="35,92" data-pivot="37,52">
<g id="fronds">
<path d="M37 52 Q19 46 9 52 Q27 50 37 52" fill="#3F7A42"/>
<path d="M37 52 Q27 34 15 32 Q33 44 37 52" fill="#4E8B4E"/>
<path d="M37 52 Q41 32 55 28 Q41 44 37 52" fill="#3F7A42"/>
<path d="M37 52 Q55 42 65 46 Q45 50 37 52" fill="#4E8B4E"/>
<path d="M37 52 Q39 36 33 24 Q41 40 37 52" fill="#5AA84E"/>
<circle cx="37" cy="52" r="3" fill="#7A5C2E"/><circle cx="32" cy="54" r="2" fill="#9E7A2E"/><circle cx="42" cy="54" r="2" fill="#9E7A2E"/>
</g>
</svg>
