<svg xmlns="http://www.w3.org/2000/svg" width="90" height="120" viewBox="0 0 90 120" data-anchor="45,100" data-footprint="2x2">
<ellipse cx="45" cy="100" rx="28" ry="8" fill="#00000022"/>
<path d="M24 74 L24 96 A21 7 0 0 0 66 96 L66 74 Z" fill="#B0A795"/><path d="M45 74 L45 103 A21 7 0 0 0 66 96 L66 74 Z" fill="#988F7E" opacity="0.6"/>
<ellipse cx="45" cy="74" rx="21" ry="7" fill="#CFC8BA"/><ellipse cx="45" cy="74" rx="15" ry="5" fill="#2E6E86"/><ellipse cx="41" cy="72" rx="5" ry="1.6" fill="#9FD0E0" opacity="0.6"/>
<line x1="28" y1="44" x2="28" y2="74" stroke="#6B4F30" stroke-width="3"/><line x1="62" y1="44" x2="62" y2="74" stroke="#5A4228" stroke-width="3"/>
<polygon points="22,46 68,46 58,30 32,30" fill="#A33A2E"/><polygon points="45,30 68,46 58,46 45,36" fill="#872C22"/>
</svg>
